# xmcd CD database file
#
# Track frame offsets:
#	150
#	38784
#	66408
#	90922
#	126039
#	152070
#	172217
#	201031
#	233213
#
# Disc length: 3596 seconds
#
# Revision: 1
# Processed by: cddbd v1.5.1PL2 Copyright (c) Steve Scherf et al.
# Submitted via: CDex 1.51
#
DISCID=740e0a09
DTITLE=David Hazeltine Trio - Waltz For Debby
DYEAR=1999
DGENRE=Jazz
TTITLE0=Waltz For Debby
TTITLE1=Peri's Scope
TTITLE2=Time Remembered
TTITLE3=Show Type Tune
TTITLE4=Very Early
TTITLE5=Bill At Peace
TTITLE6=Funkallero
TTITLE7=The Two Lonely Peaple
TTITLE8=Turn Out The Stars
EXTD=YEAR: 1999
EXTT0=
EXTT1=
EXTT2=
EXTT3=
EXTT4=
EXTT5=
EXTT6=
EXTT7=
EXTT8=
PLAYORDER=
